<svg width="28" height="32" viewBox="0 0 28 32" fill="none" xmlns="http://www.w3.org/2000/svg">
<path d="M5.61906 15.9997H16.0953M5.61906 20.1902H20.2857M5.61906 24.3806H11.9048M26.5714 26.4759V11.8092L16.0953 1.33301H5.61906C4.50768 1.33301 3.44182 1.7745 2.65595 2.56037C1.87008 3.34624 1.42859 4.4121 1.42859 5.52348V26.4759C1.42859 27.5872 1.87008 28.6531 2.65595 29.439C3.44182 30.2248 4.50768 30.6663 5.61906 30.6663H22.381C23.4924 30.6663 24.5582 30.2248 25.3441 29.439C26.1299 28.6531 26.5714 27.5872 26.5714 26.4759Z" stroke="#111111" stroke-linecap="round" stroke-linejoin="round"/>
<path d="M16.0953 1.33301V7.61872C16.0953 8.73011 16.5368 9.79597 17.3226 10.5818C18.1085 11.3677 19.1744 11.8092 20.2858 11.8092H26.5715" stroke="#111111" stroke-linecap="round" stroke-linejoin="round"/>
</svg>
