<svg xmlns="http://www.w3.org/2000/svg" xmlns:xlink="http://www.w3.org/1999/xlink" version="1.1" x="0px" y="0px" viewBox="0 0 32 40" style="enable-background:new 0 0 32 32;" xml:space="preserve"><g><g><g><path d="M16,17.54c4.27,0,7.73-3.46,7.73-7.73c0-4.27-3.46-7.73-7.73-7.73c-4.27,0-7.73,3.46-7.73,7.73     C8.27,14.08,11.73,17.54,16,17.54z M23.7,19.88h-2.75c-0.61,0-1.19,0.3-1.54,0.8l-1.92,2.75c-0.75,1.08-2.35,1.07-3.09-0.02     l-1.84-2.71c-0.35-0.51-0.93-0.82-1.55-0.82H8.3c-3.48,0-6.3,2.82-6.3,6.3v2.8c0,0.52,0.42,0.94,0.94,0.94h26.12     c0.52,0,0.94-0.42,0.94-0.94v-2.8C30,22.7,27.18,19.88,23.7,19.88z M26.74,25.95c0,0.22-0.18,0.4-0.4,0.4h-1.47v1.47     c0,0.22-0.18,0.4-0.4,0.4h-1.21c-0.22,0-0.4-0.18-0.4-0.4v-1.47h-1.47c-0.22,0-0.4-0.18-0.4-0.4v-1.21c0-0.22,0.18-0.4,0.4-0.4     h1.47v-1.47c0-0.22,0.18-0.4,0.4-0.4h1.21c0.22,0,0.4,0.18,0.4,0.4v1.47h1.47c0.22,0,0.4,0.18,0.4,0.4V25.95z"/><path d="M16.93,19.74h-1.61c-0.56,0-1.01,0.45-1.01,1.01c0,0.56,0.45,1.01,1.01,1.01h1.61c0.56,0,1.01-0.45,1.01-1.01     C17.93,20.19,17.48,19.74,16.93,19.74z"/></g></g></g><text x="0" y="47" fill="#000000" font-size="5px" font-weight="bold" font-family="'Helvetica Neue', Helvetica, Arial-Unicode, Arial, Sans-serif">Created by usamah abdul matin</text><text x="0" y="52" fill="#000000" font-size="5px" font-weight="bold" font-family="'Helvetica Neue', Helvetica, Arial-Unicode, Arial, Sans-serif">from the Noun Project</text></svg>