<svg width="10" height="11" viewBox="0 0 10 11" fill="none" xmlns="http://www.w3.org/2000/svg">
<path d="M7.71875 3.25V2.96875C7.7182 2.25951 7.44082 1.5785 6.94568 1.0707C6.45053 0.562909 5.77674 0.268444 5.06773 0.25H4.93227C4.22327 0.268444 3.54947 0.562909 3.05432 1.0707C2.55918 1.5785 2.2818 2.25951 2.28125 2.96875V3.25H0.21875C0.193886 3.25 0.17004 3.25988 0.152459 3.27746C0.134877 3.29504 0.125 3.31889 0.125 3.34375V10.375C0.125 10.4745 0.164509 10.5698 0.234835 10.6402C0.305161 10.7105 0.400544 10.75 0.5 10.75H9.5C9.59946 10.75 9.69484 10.7105 9.76517 10.6402C9.83549 10.5698 9.875 10.4745 9.875 10.375V3.34375C9.875 3.31889 9.86512 3.29504 9.84754 3.27746C9.82996 3.25988 9.80611 3.25 9.78125 3.25H7.71875ZM6.78125 3.25H3.21875V2.99219C3.21875 2.01156 4.0018 1.19781 4.98242 1.1875C5.21775 1.18543 5.45115 1.22996 5.66918 1.31852C5.88722 1.40709 6.08556 1.53793 6.25278 1.70352C6.42 1.86911 6.55279 2.06616 6.64349 2.28331C6.73419 2.50046 6.78101 2.73342 6.78125 2.96875V3.25Z" fill="#A4907C"/>
</svg>
