<svg width="24" height="24" viewBox="0 0 24 24" fill="none" xmlns="http://www.w3.org/2000/svg">
<path d="M22.9752 21.0448L17.8297 15.8992C19.0685 14.25 19.7373 12.2426 19.735 10.18C19.735 4.91141 15.4486 0.625 10.18 0.625C4.91141 0.625 0.625 4.91141 0.625 10.18C0.625 15.4486 4.91141 19.735 10.18 19.735C12.2426 19.7373 14.25 19.0685 15.8992 17.8297L21.0448 22.9752C21.3052 23.2081 21.645 23.3324 21.9942 23.3226C22.3434 23.3128 22.6756 23.1697 22.9227 22.9227C23.1697 22.6756 23.3128 22.3434 23.3226 21.9942C23.3324 21.645 23.2081 21.3052 22.9752 21.0448ZM3.355 10.18C3.355 8.83014 3.75528 7.5106 4.50522 6.38823C5.25516 5.26587 6.32108 4.39109 7.56819 3.87452C8.81529 3.35795 10.1876 3.2228 11.5115 3.48614C12.8354 3.74948 14.0515 4.3995 15.006 5.354C15.9605 6.30849 16.6105 7.52459 16.8739 8.84851C17.1372 10.1724 17.002 11.5447 16.4855 12.7918C15.9689 14.0389 15.0941 15.1048 13.9718 15.8548C12.8494 16.6047 11.5299 17.005 10.18 17.005C8.37056 17.0028 6.63586 16.2831 5.35639 15.0036C4.07693 13.7241 3.35717 11.9894 3.355 10.18Z" fill="#B8B8B8"/>
</svg>
